<?xml version="1.0" encoding="utf-8"?>
<!-- Generator: Adobe Illustrator 22.0.1, SVG Export Plug-In . SVG Version: 6.00 Build 0)  -->
<svg version="1.1" id="Layer_1" xmlns="http://www.w3.org/2000/svg" xmlns:xlink="http://www.w3.org/1999/xlink" x="0px" y="0px"
	 viewBox="0 0 1300 500" style="enable-background:new 0 0 1300 500;" xml:space="preserve">
<style type="text/css">
	.st0{opacity:0.1;}
	.st1{fill:#353535;}
</style>
<g class="st0">
	<path class="st1" d="M53.6,543.1c-58.6,1-89.2-42.8-67.9-97.4l28.4-73c21.3-54.6,50.3-62.4,64.6-17.2s44.7,38,67.7-15.9l30.8-72.4
		c23-53.9,62.7-54.9,88.2-2.1l26.9,55.6c25.5,52.8,70.9,54.7,100.8,4.2l46.7-78.8c29.9-50.4,66.3-45.3,81,11.5l30.8,119
		c14.7,56.8,47.3,59.9,72.5,6.9l75.7-159.2c25.2-52.9,64.1-51.9,86.4,2.3l50.3,122c22.4,54.2,54,60.2,70.3,13.2s54.7-44.5,85.2,5.3
		c30.6,49.8,81.3,60.2,112.8,23.2s71.8-46.1,89.6-20s46.9,12.3,64.7-30.5s46-31.9,62.7,24.3l15.9,53.6
		c16.7,56.2-17.6,103-76.2,104.1L53.6,543.1z"/>
</g>
<g class="st0">
	<path class="st1" d="M147.6,604.1c-58.6,1-89.2-42.8-67.9-97.4l28.4-73c21.3-54.6,50.3-62.4,64.6-17.2s44.7,38,67.7-15.9l30.8-72.4
		c23-53.9,62.7-54.9,88.2-2.1l26.9,55.6c25.5,52.8,70.9,54.7,100.8,4.2l46.7-78.8c29.9-50.4,66.3-45.3,81,11.5l30.8,119
		c14.7,56.8,47.3,59.9,72.5,6.9l75.7-159.2c25.2-52.9,64.1-51.9,86.4,2.3l50.3,122c22.4,54.2,54,60.2,70.3,13.2s54.7-44.5,85.2,5.3
		s81.3,60.2,112.8,23.2s71.8-46.1,89.6-20s46.9,12.3,64.7-30.5s46-31.9,62.7,24.3l15.9,53.6c16.7,56.2-17.6,103-76.2,104.1
		L147.6,604.1z"/>
</g>
</svg>
